<svg width="25" height="24" viewBox="0 0 25 24" fill="none" xmlns="http://www.w3.org/2000/svg">
<path d="M23.1611 13.33V17.25C23.2058 19.3561 21.5371 21.1008 19.4311 21.15L6.23109 21.08C4.12351 21.0254 2.45634 19.2778 2.50109 17.17V13.25C2.47693 12.2368 2.85641 11.2555 3.55598 10.5222C4.25555 9.78886 5.21787 9.36359 6.23109 9.34H11.9711V14.19L9.62109 11.86C9.45965 11.6976 9.2401 11.6062 9.01109 11.6062C8.78207 11.6062 8.56252 11.6976 8.40109 11.86C8.23351 12.0186 8.13858 12.2392 8.13858 12.47C8.13858 12.7008 8.23351 12.9214 8.40109 13.08L12.2211 16.9C12.5596 17.2329 13.1025 17.2329 13.4411 16.9L17.2611 13.08C17.4287 12.9214 17.5236 12.7008 17.5236 12.47C17.5236 12.2392 17.4287 12.0186 17.2611 11.86C17.0997 11.6976 16.8801 11.6062 16.6511 11.6062C16.4221 11.6062 16.2025 11.6976 16.0411 11.86L13.6911 14.22V9.38H19.4311C20.4514 9.40345 21.42 9.83424 22.1207 10.5763C22.8214 11.3184 23.1961 12.31 23.1611 13.33Z" fill="white"/>
<path d="M13.6911 3.86L13.6911 9.38H11.9711V3.86C11.9711 3.38504 12.3561 3 12.8311 3C13.3061 3 13.6911 3.38504 13.6911 3.86Z" fill="white"/>
</svg>
