<svg width="29" height="28" viewBox="0 0 29 28" fill="none" xmlns="http://www.w3.org/2000/svg">
<path d="M25.8334 5.65831V19.53C25.8334 20.6616 24.9117 21.7 23.7801 21.84L23.4184 21.8866C21.5051 22.1433 18.8101 22.9366 16.6401 23.8466C15.8817 24.1616 15.0417 23.59 15.0417 22.7616V6.53331C15.0417 6.10165 15.2867 5.70498 15.6717 5.49498C17.8067 4.33998 21.0384 3.31331 23.2317 3.12665H23.3017C24.7017 3.12665 25.8334 4.25831 25.8334 5.65831Z" fill="#485861"/>
<path d="M12.6617 5.49498C10.5267 4.33998 7.29507 3.31331 5.10174 3.12665H5.02007C3.62007 3.12665 2.4884 4.25831 2.4884 5.65831V19.53C2.4884 20.6616 3.41007 21.7 4.54174 21.84L4.9034 21.8866C6.81674 22.1433 9.51174 22.9366 11.6817 23.8466C12.4401 24.1616 13.2801 23.59 13.2801 22.7616V6.53331C13.2801 6.08998 13.0467 5.70498 12.6617 5.49498ZM6.00007 9.02998H8.62507C9.1034 9.02998 9.50007 9.42665 9.50007 9.90498C9.50007 10.395 9.1034 10.78 8.62507 10.78H6.00007C5.52174 10.78 5.12507 10.395 5.12507 9.90498C5.12507 9.42665 5.52174 9.02998 6.00007 9.02998ZM9.50007 14.28H6.00007C5.52174 14.28 5.12507 13.895 5.12507 13.405C5.12507 12.9266 5.52174 12.53 6.00007 12.53H9.50007C9.9784 12.53 10.3751 12.9266 10.3751 13.405C10.3751 13.895 9.9784 14.28 9.50007 14.28Z" fill="#485861"/>
</svg>
