<svg width="23" height="24" viewBox="0 0 23 24" fill="none" xmlns="http://www.w3.org/2000/svg">
<path fill-rule="evenodd" clip-rule="evenodd" d="M1.57197 6.94779C3.23588 2.95238 7.13446 0.345283 11.4625 0.333723C16.135 0.305649 20.2913 3.29734 21.7478 7.73715C23.2044 12.177 21.628 17.0493 17.8469 19.7946C14.0658 22.5398 8.94477 22.5301 5.17415 19.7704L1.82582 23.1187C1.48419 23.4599 0.930769 23.4599 0.589149 23.1187C0.247953 22.7771 0.247953 22.2237 0.589149 21.8821L3.84415 18.6271C0.803702 15.5469 -0.0919326 10.9432 1.57197 6.94779ZM14.17 7.38228C14.4546 8.06342 15.1226 8.50511 15.8608 8.50039C16.8595 8.50039 17.6691 7.69077 17.6691 6.69206C17.6739 5.95383 17.2322 5.28589 16.551 5.0012C15.8699 4.71651 15.0843 4.87148 14.5623 5.39349C14.0402 5.9155 13.8853 6.70114 14.17 7.38228Z" fill="#485861"/>
</svg>
