<svg width="20" height="20" viewBox="0 0 20 20" fill="none" xmlns="http://www.w3.org/2000/svg">
<path d="M11.76 9.81C11.76 10.8925 10.8825 11.77 9.8 11.77C8.71752 11.77 7.84 10.8925 7.84 9.81C7.84 8.72752 8.71752 7.85 9.8 7.85C10.8825 7.85 11.76 8.72752 11.76 9.81Z" fill="white"/>
<path fill-rule="evenodd" clip-rule="evenodd" d="M17.2264 6.73077C17.4169 7.19491 17.8683 7.49854 18.37 7.5C18.6989 7.5 19.0143 7.63064 19.2468 7.86319C19.4794 8.09573 19.61 8.41113 19.61 8.74V10.88C19.61 11.5648 19.0548 12.12 18.37 12.12C17.8683 12.1215 17.4169 12.4251 17.2264 12.8892C17.036 13.3534 17.144 13.8865 17.5 14.24C17.9776 14.7295 17.9776 15.5105 17.5 16L16 17.5C15.5105 17.9776 14.7295 17.9776 14.24 17.5C13.8865 17.144 13.3534 17.036 12.8892 17.2264C12.4251 17.4169 12.1215 17.8683 12.12 18.37C12.12 19.0548 11.5648 19.61 10.88 19.61H8.74C8.05517 19.61 7.5 19.0548 7.5 18.37C7.49854 17.8683 7.19491 17.4169 6.73077 17.2264C6.26664 17.036 5.73346 17.144 5.38 17.5C4.89055 17.9776 4.10945 17.9776 3.62 17.5L2.12 16C1.64237 15.5105 1.64237 14.7295 2.12 14.24C2.47735 13.8853 2.5847 13.3496 2.39166 12.8846C2.19862 12.4195 1.74352 12.1174 1.24 12.12C0.555167 12.12 0 11.5648 0 10.88V8.74C0 8.05517 0.555167 7.5 1.24 7.5C1.7417 7.49854 2.19308 7.19491 2.38355 6.73077C2.57402 6.26664 2.46605 5.73346 2.11 5.38C1.63237 4.89055 1.63237 4.10945 2.11 3.62L3.61 2.12C4.09945 1.64237 4.88055 1.64237 5.37 2.12C5.72474 2.47735 6.26035 2.5847 6.7254 2.39166C7.19046 2.19862 7.4926 1.74352 7.49 1.24C7.49 0.555167 8.04517 0 8.73 0H10.88C11.2089 0 11.5243 0.130642 11.7568 0.363188C11.9894 0.595733 12.12 0.911132 12.12 1.24C12.1174 1.74352 12.4195 2.19862 12.8846 2.39166C13.3496 2.5847 13.8853 2.47735 14.24 2.12C14.7295 1.64237 15.5105 1.64237 16 2.12L17.5 3.62C17.9776 4.10945 17.9776 4.89055 17.5 5.38C17.144 5.73346 17.036 6.26664 17.2264 6.73077ZM6.34 9.81C6.34 11.7209 7.88909 13.27 9.8 13.27C11.7109 13.27 13.26 11.7209 13.26 9.81C13.26 7.8991 11.7109 6.35 9.8 6.35C7.88909 6.35 6.34 7.8991 6.34 9.81Z" fill="white"/>
</svg>
